<svg xmlns="http://www.w3.org/2000/svg" xmlns:xlink="http://www.w3.org/1999/xlink" width="308" zoomAndPan="magnify" viewBox="0 0 230.87999 65.249999" height="87" preserveAspectRatio="xMidYMid meet" version="1.0"><defs><g/></defs><g fill="#223202" fill-opacity="1"><g transform="translate(26.93907, 40.464081)"><g><path d="M -4.71875 13.6875 C -3.875 12.613281 -3.050781 11.367188 -2.25 9.953125 C -1.457031 8.535156 -0.726562 7.066406 -0.0625 5.546875 C 0.601562 4.023438 1.207031 2.503906 1.75 0.984375 C 2.289062 -0.535156 2.742188 -1.9375 3.109375 -3.21875 C 3.472656 -4.507812 3.726562 -5.628906 3.875 -6.578125 C 4.019531 -7.535156 4.039062 -8.210938 3.9375 -8.609375 C 3.851562 -8.898438 3.65625 -9.03125 3.34375 -9 C 3.03125 -8.976562 2.707031 -8.90625 2.375 -8.78125 C 2.050781 -8.664062 1.765625 -8.554688 1.515625 -8.453125 C 1.265625 -8.347656 1.164062 -8.375 1.21875 -8.53125 C 1.269531 -8.664062 1.472656 -8.960938 1.828125 -9.421875 C 2.179688 -9.878906 2.695312 -10.28125 3.375 -10.625 C 3.613281 -10.78125 3.882812 -10.835938 4.1875 -10.796875 C 4.488281 -10.753906 4.765625 -10.613281 5.015625 -10.375 C 5.265625 -10.144531 5.445312 -9.816406 5.5625 -9.390625 C 5.675781 -8.972656 5.679688 -8.460938 5.578125 -7.859375 C 5.003906 -5.523438 4.441406 -3.394531 3.890625 -1.46875 C 3.335938 0.457031 2.691406 2.289062 1.953125 4.03125 C 1.222656 5.769531 0.367188 7.46875 -0.609375 9.125 C -1.585938 10.78125 -2.785156 12.5 -4.203125 14.28125 C -4.597656 14.769531 -4.894531 15.0625 -5.09375 15.15625 C -5.289062 15.25 -5.398438 15.222656 -5.421875 15.078125 C -5.453125 14.929688 -5.398438 14.722656 -5.265625 14.453125 C -5.140625 14.179688 -4.957031 13.925781 -4.71875 13.6875 Z M -4.71875 13.6875 "/></g></g></g><g fill="#223202" fill-opacity="1"><g transform="translate(34.137031, 40.464081)"><g><path d="M 21.359375 -9.828125 C 20.773438 -9.359375 20.210938 -8.851562 19.671875 -8.3125 C 19.140625 -7.78125 18.617188 -7.160156 18.109375 -6.453125 C 17.597656 -5.742188 17.101562 -4.910156 16.625 -3.953125 C 16.15625 -2.992188 15.710938 -1.875 15.296875 -0.59375 C 15.222656 -0.351562 15.0625 -0.203125 14.8125 -0.140625 C 14.5625 -0.078125 14.328125 -0.078125 14.109375 -0.140625 C 13.898438 -0.203125 13.75 -0.335938 13.65625 -0.546875 C 13.570312 -0.753906 13.660156 -1.046875 13.921875 -1.421875 C 14.367188 -2.390625 14.800781 -3.445312 15.21875 -4.59375 C 15.632812 -5.75 15.921875 -7.078125 16.078125 -8.578125 C 16.054688 -8.785156 16.035156 -8.972656 16.015625 -9.140625 C 16.003906 -9.316406 15.972656 -9.484375 15.921875 -9.640625 C 15.816406 -10.078125 15.660156 -10.273438 15.453125 -10.234375 C 15.242188 -10.203125 15.035156 -10.109375 14.828125 -9.953125 C 14.253906 -9.472656 13.644531 -8.898438 13 -8.234375 C 12.351562 -7.566406 11.734375 -6.828125 11.140625 -6.015625 C 10.554688 -5.203125 10.019531 -4.328125 9.53125 -3.390625 C 9.050781 -2.460938 8.679688 -1.515625 8.421875 -0.546875 C 8.179688 -0.335938 7.878906 -0.257812 7.515625 -0.3125 C 7.203125 -0.289062 7.015625 -0.347656 6.953125 -0.484375 C 6.898438 -0.628906 6.90625 -0.804688 6.96875 -1.015625 C 7.09375 -1.597656 7.332031 -2.222656 7.6875 -2.890625 C 8.039062 -3.554688 8.421875 -4.21875 8.828125 -4.875 C 9.234375 -5.53125 9.613281 -6.171875 9.96875 -6.796875 C 10.320312 -7.429688 10.578125 -8.007812 10.734375 -8.53125 C 10.816406 -8.789062 10.785156 -9.003906 10.640625 -9.171875 C 10.492188 -9.347656 10.296875 -9.472656 10.046875 -9.546875 C 9.796875 -9.628906 9.523438 -9.664062 9.234375 -9.65625 C 8.953125 -9.644531 8.707031 -9.597656 8.5 -9.515625 C 7.53125 -9.148438 6.644531 -8.519531 5.84375 -7.625 C 5.039062 -6.738281 4.316406 -5.722656 3.671875 -4.578125 C 3.035156 -3.441406 2.5 -2.226562 2.0625 -0.9375 C 1.632812 0.34375 1.320312 1.566406 1.125 2.734375 C 0.925781 3.898438 0.84375 4.941406 0.875 5.859375 C 0.914062 6.773438 1.109375 7.441406 1.453125 7.859375 C 2.398438 9.066406 2.953125 9.976562 3.109375 10.59375 C 3.265625 11.207031 3.238281 11.632812 3.03125 11.875 C 2.820312 12.113281 2.519531 12.195312 2.125 12.125 C 1.726562 12.0625 1.453125 11.953125 1.296875 11.796875 C 1.085938 11.585938 0.894531 11.285156 0.71875 10.890625 C 0.550781 10.492188 0.351562 10.101562 0.125 9.71875 C -0.09375 9.34375 -0.359375 9.023438 -0.671875 8.765625 C -0.984375 8.503906 -1.375 8.398438 -1.84375 8.453125 C -2.101562 8.484375 -2.316406 8.453125 -2.484375 8.359375 C -2.660156 8.265625 -2.78125 8.140625 -2.84375 7.984375 C -2.914062 7.828125 -2.929688 7.65625 -2.890625 7.46875 C -2.847656 7.289062 -2.75 7.125 -2.59375 6.96875 C -2.414062 6.96875 -2.207031 7 -1.96875 7.0625 C -1.726562 7.125 -1.507812 7.164062 -1.3125 7.1875 C -1.113281 7.21875 -0.945312 7.203125 -0.8125 7.140625 C -0.6875 7.078125 -0.625 6.898438 -0.625 6.609375 C -0.601562 5.085938 -0.414062 3.4375 -0.0625 1.65625 C 0.289062 -0.125 0.84375 -1.84375 1.59375 -3.5 C 2.34375 -5.15625 3.289062 -6.648438 4.4375 -7.984375 C 5.59375 -9.316406 6.984375 -10.3125 8.609375 -10.96875 C 8.972656 -11.125 9.359375 -11.179688 9.765625 -11.140625 C 10.171875 -11.109375 10.53125 -10.992188 10.84375 -10.796875 C 11.164062 -10.597656 11.414062 -10.332031 11.59375 -10 C 11.78125 -9.675781 11.835938 -9.28125 11.765625 -8.8125 C 12.128906 -9.15625 12.570312 -9.535156 13.09375 -9.953125 C 13.625 -10.367188 14.148438 -10.71875 14.671875 -11 C 15.191406 -11.289062 15.664062 -11.441406 16.09375 -11.453125 C 16.53125 -11.472656 16.851562 -11.25 17.0625 -10.78125 C 17.195312 -10.40625 17.289062 -10.023438 17.34375 -9.640625 C 17.394531 -9.265625 17.421875 -8.859375 17.421875 -8.421875 C 17.609375 -8.335938 17.757812 -8.320312 17.875 -8.375 C 17.988281 -8.425781 18.113281 -8.519531 18.25 -8.65625 C 18.613281 -8.988281 19.054688 -9.375 19.578125 -9.8125 C 20.109375 -10.25 20.640625 -10.609375 21.171875 -10.890625 C 21.710938 -11.179688 22.195312 -11.335938 22.625 -11.359375 C 23.0625 -11.390625 23.382812 -11.15625 23.59375 -10.65625 C 23.832031 -10.050781 23.953125 -9.367188 23.953125 -8.609375 C 23.953125 -7.847656 23.875 -7.0625 23.71875 -6.25 C 23.5625 -5.4375 23.347656 -4.625 23.078125 -3.8125 C 22.816406 -3 22.554688 -2.253906 22.296875 -1.578125 C 22.222656 -1.335938 22.066406 -1.101562 21.828125 -0.875 C 21.585938 -0.65625 21.34375 -0.476562 21.09375 -0.34375 C 20.84375 -0.21875 20.617188 -0.128906 20.421875 -0.078125 C 20.234375 -0.0234375 20.125 -0.0664062 20.09375 -0.203125 C 20.507812 -0.742188 20.894531 -1.40625 21.25 -2.1875 C 21.601562 -2.976562 21.898438 -3.804688 22.140625 -4.671875 C 22.378906 -5.546875 22.53125 -6.398438 22.59375 -7.234375 C 22.65625 -8.078125 22.609375 -8.835938 22.453125 -9.515625 C 22.347656 -9.960938 22.191406 -10.164062 21.984375 -10.125 C 21.773438 -10.082031 21.566406 -9.984375 21.359375 -9.828125 Z M 21.359375 -9.828125 "/></g></g></g><g fill="#223202" fill-opacity="1"><g transform="translate(59.310215, 40.464081)"><g><path d="M -4.71875 13.6875 C -3.875 12.613281 -3.050781 11.367188 -2.25 9.953125 C -1.457031 8.535156 -0.726562 7.066406 -0.0625 5.546875 C 0.601562 4.023438 1.207031 2.503906 1.75 0.984375 C 2.289062 -0.535156 2.742188 -1.9375 3.109375 -3.21875 C 3.472656 -4.507812 3.726562 -5.628906 3.875 -6.578125 C 4.019531 -7.535156 4.039062 -8.210938 3.9375 -8.609375 C 3.851562 -8.898438 3.65625 -9.03125 3.34375 -9 C 3.03125 -8.976562 2.707031 -8.90625 2.375 -8.78125 C 2.050781 -8.664062 1.765625 -8.554688 1.515625 -8.453125 C 1.265625 -8.347656 1.164062 -8.375 1.21875 -8.53125 C 1.269531 -8.664062 1.472656 -8.960938 1.828125 -9.421875 C 2.179688 -9.878906 2.695312 -10.28125 3.375 -10.625 C 3.613281 -10.78125 3.882812 -10.835938 4.1875 -10.796875 C 4.488281 -10.753906 4.765625 -10.613281 5.015625 -10.375 C 5.265625 -10.144531 5.445312 -9.816406 5.5625 -9.390625 C 5.675781 -8.972656 5.679688 -8.460938 5.578125 -7.859375 C 5.003906 -5.523438 4.441406 -3.394531 3.890625 -1.46875 C 3.335938 0.457031 2.691406 2.289062 1.953125 4.03125 C 1.222656 5.769531 0.367188 7.46875 -0.609375 9.125 C -1.585938 10.78125 -2.785156 12.5 -4.203125 14.28125 C -4.597656 14.769531 -4.894531 15.0625 -5.09375 15.15625 C -5.289062 15.25 -5.398438 15.222656 -5.421875 15.078125 C -5.453125 14.929688 -5.398438 14.722656 -5.265625 14.453125 C -5.140625 14.179688 -4.957031 13.925781 -4.71875 13.6875 Z M -4.71875 13.6875 "/></g></g></g><g fill="#223202" fill-opacity="1"><g transform="translate(66.508177, 40.464081)"><g><path d="M 3.65625 -9.796875 C 4.226562 -10.242188 4.769531 -10.625 5.28125 -10.9375 C 5.800781 -11.25 6.28125 -11.414062 6.71875 -11.4375 C 7.164062 -11.46875 7.535156 -11.207031 7.828125 -10.65625 C 8.378906 -9.632812 8.578125 -8.519531 8.421875 -7.3125 C 8.265625 -6.101562 7.910156 -4.972656 7.359375 -3.921875 C 6.804688 -2.878906 6.128906 -1.984375 5.328125 -1.234375 C 4.523438 -0.492188 3.734375 -0.0664062 2.953125 0.046875 C 2.398438 0.117188 2.023438 -0.046875 1.828125 -0.453125 C 1.628906 -0.859375 1.476562 -1.320312 1.375 -1.84375 C 0.957031 -4.15625 0.898438 -6.203125 1.203125 -7.984375 C 1.503906 -9.765625 2.085938 -11.367188 2.953125 -12.796875 C 3.816406 -14.222656 4.9375 -15.515625 6.3125 -16.671875 C 7.6875 -17.828125 9.253906 -18.941406 11.015625 -20.015625 C 11.460938 -20.253906 11.875 -20.195312 12.25 -19.84375 C 12.632812 -19.488281 12.945312 -19.007812 13.1875 -18.40625 C 13.4375 -17.800781 13.617188 -17.148438 13.734375 -16.453125 C 13.859375 -15.765625 13.878906 -15.179688 13.796875 -14.703125 C 13.535156 -15.023438 13.296875 -15.414062 13.078125 -15.875 C 12.859375 -16.332031 12.628906 -16.765625 12.390625 -17.171875 C 12.148438 -17.578125 11.890625 -17.90625 11.609375 -18.15625 C 11.335938 -18.40625 11.035156 -18.445312 10.703125 -18.28125 C 9.148438 -17.414062 7.796875 -16.492188 6.640625 -15.515625 C 5.492188 -14.535156 4.550781 -13.425781 3.8125 -12.1875 C 3.238281 -11.25 2.804688 -10.203125 2.515625 -9.046875 C 2.910156 -9.253906 3.289062 -9.503906 3.65625 -9.796875 Z M 2.4375 -2.953125 C 2.59375 -1.878906 2.988281 -1.445312 3.625 -1.65625 C 4.09375 -1.8125 4.554688 -2.15625 5.015625 -2.6875 C 5.472656 -3.226562 5.867188 -3.851562 6.203125 -4.5625 C 6.546875 -5.269531 6.800781 -6.003906 6.96875 -6.765625 C 7.144531 -7.523438 7.195312 -8.207031 7.125 -8.8125 C 7.039062 -9.414062 6.804688 -9.734375 6.421875 -9.765625 C 6.046875 -9.804688 5.609375 -9.695312 5.109375 -9.4375 C 4.609375 -9.175781 4.085938 -8.820312 3.546875 -8.375 C 3.046875 -8.007812 2.609375 -7.679688 2.234375 -7.390625 C 2.109375 -6.054688 2.175781 -4.578125 2.4375 -2.953125 Z M 2.4375 -2.953125 "/></g></g></g><g fill="#223202" fill-opacity="1"><g transform="translate(78.15077, 40.464081)"><g><path d="M -4.71875 13.6875 C -3.875 12.613281 -3.050781 11.367188 -2.25 9.953125 C -1.457031 8.535156 -0.726562 7.066406 -0.0625 5.546875 C 0.601562 4.023438 1.207031 2.503906 1.75 0.984375 C 2.289062 -0.535156 2.742188 -1.9375 3.109375 -3.21875 C 3.472656 -4.507812 3.726562 -5.628906 3.875 -6.578125 C 4.019531 -7.535156 4.039062 -8.210938 3.9375 -8.609375 C 3.851562 -8.898438 3.65625 -9.03125 3.34375 -9 C 3.03125 -8.976562 2.707031 -8.90625 2.375 -8.78125 C 2.050781 -8.664062 1.765625 -8.554688 1.515625 -8.453125 C 1.265625 -8.347656 1.164062 -8.375 1.21875 -8.53125 C 1.269531 -8.664062 1.472656 -8.960938 1.828125 -9.421875 C 2.179688 -9.878906 2.695312 -10.28125 3.375 -10.625 C 3.613281 -10.78125 3.882812 -10.835938 4.1875 -10.796875 C 4.488281 -10.753906 4.765625 -10.613281 5.015625 -10.375 C 5.265625 -10.144531 5.445312 -9.816406 5.5625 -9.390625 C 5.675781 -8.972656 5.679688 -8.460938 5.578125 -7.859375 C 5.003906 -5.523438 4.441406 -3.394531 3.890625 -1.46875 C 3.335938 0.457031 2.691406 2.289062 1.953125 4.03125 C 1.222656 5.769531 0.367188 7.46875 -0.609375 9.125 C -1.585938 10.78125 -2.785156 12.5 -4.203125 14.28125 C -4.597656 14.769531 -4.894531 15.0625 -5.09375 15.15625 C -5.289062 15.25 -5.398438 15.222656 -5.421875 15.078125 C -5.453125 14.929688 -5.398438 14.722656 -5.265625 14.453125 C -5.140625 14.179688 -4.957031 13.925781 -4.71875 13.6875 Z M -4.71875 13.6875 "/></g></g></g><g fill="#223202" fill-opacity="1"><g transform="translate(112.50007, 41.848175)"><g><path d="M 2.34375 -2.546875 C 1.769531 -1.359375 1.34375 -0.148438 1.0625 1.078125 C 0.78125 2.316406 0.664062 3.535156 0.71875 4.734375 C 0.78125 5.929688 1.035156 7.039062 1.484375 8.0625 C 2.109375 9.488281 2.476562 10.53125 2.59375 11.1875 C 2.71875 11.84375 2.710938 12.265625 2.578125 12.453125 C 2.441406 12.648438 2.238281 12.679688 1.96875 12.546875 C 1.707031 12.410156 1.492188 12.257812 1.328125 12.09375 C 1.117188 11.882812 0.925781 11.578125 0.75 11.171875 C 0.570312 10.765625 0.367188 10.363281 0.140625 9.96875 C -0.0859375 9.582031 -0.363281 9.253906 -0.6875 8.984375 C -1.007812 8.722656 -1.410156 8.617188 -1.890625 8.671875 C -2.160156 8.691406 -2.382812 8.65625 -2.5625 8.5625 C -2.738281 8.46875 -2.859375 8.335938 -2.921875 8.171875 C -2.992188 8.015625 -3.007812 7.84375 -2.96875 7.65625 C -2.925781 7.46875 -2.820312 7.296875 -2.65625 7.140625 C -2.46875 7.140625 -2.253906 7.171875 -2.015625 7.234375 C -1.773438 7.304688 -1.550781 7.351562 -1.34375 7.375 C -1.144531 7.40625 -0.976562 7.382812 -0.84375 7.3125 C -0.707031 7.25 -0.640625 7.070312 -0.640625 6.78125 C -0.617188 5.726562 -0.519531 4.601562 -0.34375 3.40625 C -0.164062 2.207031 0.109375 0.992188 0.484375 -0.234375 C 0.859375 -1.472656 1.34375 -2.679688 1.9375 -3.859375 C 2.53125 -5.046875 3.234375 -6.148438 4.046875 -7.171875 C 4.867188 -8.191406 5.816406 -9.097656 6.890625 -9.890625 C 7.972656 -10.691406 9.1875 -11.320312 10.53125 -11.78125 C 11.113281 -11.96875 11.539062 -11.925781 11.8125 -11.65625 C 12.082031 -11.382812 12.226562 -10.976562 12.25 -10.4375 C 12.28125 -9.90625 12.1875 -9.269531 11.96875 -8.53125 C 11.757812 -7.789062 11.476562 -7.050781 11.125 -6.3125 C 10.78125 -5.570312 10.378906 -4.867188 9.921875 -4.203125 C 9.460938 -3.546875 8.976562 -3.03125 8.46875 -2.65625 C 7.820312 -2.175781 7.175781 -1.84375 6.53125 -1.65625 C 5.882812 -1.46875 5.28125 -1.421875 4.71875 -1.515625 C 4.15625 -1.609375 3.644531 -1.828125 3.1875 -2.171875 C 2.945312 -2.390625 2.734375 -2.632812 2.546875 -2.90625 C 2.460938 -2.800781 2.394531 -2.679688 2.34375 -2.546875 Z M 4.28125 -3.625 C 4.519531 -3.28125 4.820312 -3.046875 5.1875 -2.921875 C 5.550781 -2.804688 5.945312 -2.796875 6.375 -2.890625 C 6.800781 -2.984375 7.242188 -3.160156 7.703125 -3.421875 C 8.078125 -3.609375 8.453125 -3.925781 8.828125 -4.375 C 9.203125 -4.820312 9.554688 -5.316406 9.890625 -5.859375 C 10.234375 -6.410156 10.519531 -6.972656 10.75 -7.546875 C 10.976562 -8.128906 11.128906 -8.644531 11.203125 -9.09375 C 11.285156 -9.539062 11.265625 -9.882812 11.140625 -10.125 C 11.023438 -10.363281 10.78125 -10.414062 10.40625 -10.28125 C 9.25 -9.90625 8.164062 -9.328125 7.15625 -8.546875 C 6.144531 -7.765625 5.238281 -6.863281 4.4375 -5.84375 C 4.21875 -5.601562 4.015625 -5.347656 3.828125 -5.078125 C 3.878906 -4.460938 4.03125 -3.976562 4.28125 -3.625 Z M 4.28125 -3.625 "/></g></g></g><g fill="#223202" fill-opacity="1"><g transform="translate(125.764622, 41.848175)"><g><path d="M 7.171875 -2.34375 C 7.609375 -2.851562 7.789062 -3.410156 7.71875 -4.015625 C 7.65625 -4.617188 7.5 -5.226562 7.25 -5.84375 C 7.007812 -6.46875 6.773438 -7.070312 6.546875 -7.65625 C 6.316406 -8.25 6.257812 -8.800781 6.375 -9.3125 C 6.425781 -9.582031 6.585938 -9.910156 6.859375 -10.296875 C 7.128906 -10.691406 7.40625 -11.035156 7.6875 -11.328125 C 7.96875 -11.628906 8.191406 -11.828125 8.359375 -11.921875 C 8.535156 -12.015625 8.546875 -11.898438 8.390625 -11.578125 C 8.035156 -10.878906 7.863281 -10.210938 7.875 -9.578125 C 7.894531 -8.941406 7.984375 -8.34375 8.140625 -7.78125 C 8.304688 -7.21875 8.484375 -6.710938 8.671875 -6.265625 C 8.859375 -5.828125 8.976562 -5.445312 9.03125 -5.125 C 9.113281 -4.425781 9.085938 -3.757812 8.953125 -3.125 C 8.816406 -2.488281 8.566406 -1.9375 8.203125 -1.46875 C 7.835938 -1 7.332031 -0.628906 6.6875 -0.359375 C 6.050781 -0.0859375 5.273438 0.03125 4.359375 0 C 3.867188 -0.03125 3.394531 -0.101562 2.9375 -0.21875 C 2.488281 -0.34375 2.101562 -0.519531 1.78125 -0.75 C 1.457031 -0.976562 1.238281 -1.265625 1.125 -1.609375 C 1.019531 -1.960938 1.078125 -2.394531 1.296875 -2.90625 C 1.347656 -3.039062 1.46875 -3.140625 1.65625 -3.203125 C 1.84375 -3.273438 2.015625 -3.320312 2.171875 -3.34375 C 2.492188 -3.394531 2.6875 -3.367188 2.75 -3.265625 C 2.820312 -3.160156 2.859375 -3.019531 2.859375 -2.84375 C 2.859375 -2.664062 2.867188 -2.484375 2.890625 -2.296875 C 2.921875 -2.109375 3.0625 -1.972656 3.3125 -1.890625 C 3.570312 -1.648438 3.882812 -1.488281 4.25 -1.40625 C 4.613281 -1.332031 4.96875 -1.3125 5.3125 -1.34375 C 5.664062 -1.382812 6.003906 -1.484375 6.328125 -1.640625 C 6.648438 -1.804688 6.929688 -2.039062 7.171875 -2.34375 Z M 7.171875 -2.34375 "/></g></g></g><g fill="#223202" fill-opacity="1"><g transform="translate(158.062332, 40.464081)"><g><path d="M 4.125 -9.515625 C 4.363281 -9.515625 4.691406 -9.597656 5.109375 -9.765625 C 5.523438 -9.941406 5.992188 -10.128906 6.515625 -10.328125 C 7.046875 -10.523438 7.578125 -10.710938 8.109375 -10.890625 C 8.648438 -11.078125 9.148438 -11.1875 9.609375 -11.21875 C 10.066406 -11.257812 10.453125 -11.207031 10.765625 -11.0625 C 11.085938 -10.925781 11.273438 -10.617188 11.328125 -10.140625 C 11.378906 -9.671875 11.359375 -9.128906 11.265625 -8.515625 C 11.171875 -7.898438 11.03125 -7.28125 10.84375 -6.65625 C 10.664062 -6.039062 10.457031 -5.445312 10.21875 -4.875 C 9.988281 -4.300781 9.769531 -3.816406 9.5625 -3.421875 C 9.457031 -2.972656 9.410156 -2.582031 9.421875 -2.25 C 9.429688 -1.925781 9.53125 -1.515625 9.71875 -1.015625 C 10.082031 0.00390625 10.203125 1.078125 10.078125 2.203125 C 9.960938 3.328125 9.679688 4.421875 9.234375 5.484375 C 8.796875 6.546875 8.226562 7.53125 7.53125 8.4375 C 6.832031 9.34375 6.085938 10.082031 5.296875 10.65625 C 4.515625 11.226562 3.722656 11.59375 2.921875 11.75 C 2.128906 11.914062 1.390625 11.773438 0.703125 11.328125 C -0.109375 10.804688 -0.648438 10.109375 -0.921875 9.234375 C -1.203125 8.367188 -1.257812 7.4375 -1.09375 6.4375 C -0.9375 5.445312 -0.578125 4.429688 -0.015625 3.390625 C 0.546875 2.359375 1.25 1.410156 2.09375 0.546875 C 2.945312 -0.316406 3.925781 -1.050781 5.03125 -1.65625 C 5.945312 -2.125 6.90625 -2.460938 7.90625 -2.671875 C 7.90625 -2.878906 7.914062 -3.078125 7.9375 -3.265625 C 7.988281 -3.609375 8.203125 -3.894531 8.578125 -4.125 C 8.859375 -4.46875 9.144531 -4.878906 9.4375 -5.359375 C 9.726562 -5.847656 9.960938 -6.34375 10.140625 -6.84375 C 10.328125 -7.34375 10.441406 -7.828125 10.484375 -8.296875 C 10.523438 -8.765625 10.4375 -9.1875 10.21875 -9.5625 C 9.957031 -9.976562 9.578125 -10.203125 9.078125 -10.234375 C 8.585938 -10.273438 8.070312 -10.175781 7.53125 -9.9375 C 6.988281 -9.707031 6.488281 -9.382812 6.03125 -8.96875 C 5.570312 -8.550781 5.253906 -8.09375 5.078125 -7.59375 C 4.941406 -7.28125 4.773438 -7.003906 4.578125 -6.765625 C 4.378906 -6.523438 4.171875 -6.375 3.953125 -6.3125 C 3.734375 -6.25 3.535156 -6.28125 3.359375 -6.40625 C 3.191406 -6.539062 3.09375 -6.804688 3.0625 -7.203125 C 3.21875 -7.878906 3.347656 -8.378906 3.453125 -8.703125 C 3.566406 -9.035156 3.660156 -9.257812 3.734375 -9.375 C 3.816406 -9.5 3.882812 -9.550781 3.9375 -9.53125 C 3.988281 -9.519531 4.050781 -9.515625 4.125 -9.515625 Z M 6.484375 -1.34375 C 5.773438 -1.101562 5.066406 -0.71875 4.359375 -0.1875 C 3.648438 0.332031 2.988281 0.972656 2.375 1.734375 C 1.757812 2.492188 1.269531 3.3125 0.90625 4.1875 C 0.539062 5.0625 0.359375 5.984375 0.359375 6.953125 C 0.359375 7.929688 0.617188 8.878906 1.140625 9.796875 C 1.816406 10.972656 2.890625 11.023438 4.359375 9.953125 C 4.753906 9.660156 5.242188 9.179688 5.828125 8.515625 C 6.421875 7.847656 6.96875 7.0625 7.46875 6.15625 C 7.96875 5.25 8.351562 4.25 8.625 3.15625 C 8.90625 2.070312 8.941406 0.96875 8.734375 -0.15625 C 8.679688 -0.46875 8.5625 -0.8125 8.375 -1.1875 C 8.320312 -1.3125 8.269531 -1.441406 8.21875 -1.578125 C 7.71875 -1.648438 7.140625 -1.570312 6.484375 -1.34375 Z M 6.484375 -1.34375 "/></g></g></g><g fill="#223202" fill-opacity="1"><g transform="translate(170.334258, 40.464081)"><g><path d="M -4.71875 13.6875 C -3.875 12.613281 -3.050781 11.367188 -2.25 9.953125 C -1.457031 8.535156 -0.726562 7.066406 -0.0625 5.546875 C 0.601562 4.023438 1.207031 2.503906 1.75 0.984375 C 2.289062 -0.535156 2.742188 -1.9375 3.109375 -3.21875 C 3.472656 -4.507812 3.726562 -5.628906 3.875 -6.578125 C 4.019531 -7.535156 4.039062 -8.210938 3.9375 -8.609375 C 3.851562 -8.898438 3.65625 -9.03125 3.34375 -9 C 3.03125 -8.976562 2.707031 -8.90625 2.375 -8.78125 C 2.050781 -8.664062 1.765625 -8.554688 1.515625 -8.453125 C 1.265625 -8.347656 1.164062 -8.375 1.21875 -8.53125 C 1.269531 -8.664062 1.472656 -8.960938 1.828125 -9.421875 C 2.179688 -9.878906 2.695312 -10.28125 3.375 -10.625 C 3.613281 -10.78125 3.882812 -10.835938 4.1875 -10.796875 C 4.488281 -10.753906 4.765625 -10.613281 5.015625 -10.375 C 5.265625 -10.144531 5.445312 -9.816406 5.5625 -9.390625 C 5.675781 -8.972656 5.679688 -8.460938 5.578125 -7.859375 C 5.003906 -5.523438 4.441406 -3.394531 3.890625 -1.46875 C 3.335938 0.457031 2.691406 2.289062 1.953125 4.03125 C 1.222656 5.769531 0.367188 7.46875 -0.609375 9.125 C -1.585938 10.78125 -2.785156 12.5 -4.203125 14.28125 C -4.597656 14.769531 -4.894531 15.0625 -5.09375 15.15625 C -5.289062 15.25 -5.398438 15.222656 -5.421875 15.078125 C -5.453125 14.929688 -5.398438 14.722656 -5.265625 14.453125 C -5.140625 14.179688 -4.957031 13.925781 -4.71875 13.6875 Z M -4.71875 13.6875 "/></g></g></g><g fill="#223202" fill-opacity="1"><g transform="translate(177.532219, 40.464081)"><g><path d="M 2.28125 -2.484375 C 1.726562 -1.328125 1.3125 -0.144531 1.03125 1.0625 C 0.757812 2.269531 0.648438 3.457031 0.703125 4.625 C 0.753906 5.789062 1.003906 6.867188 1.453125 7.859375 C 2.054688 9.253906 2.414062 10.269531 2.53125 10.90625 C 2.65625 11.550781 2.648438 11.960938 2.515625 12.140625 C 2.390625 12.328125 2.191406 12.351562 1.921875 12.21875 C 1.660156 12.09375 1.453125 11.953125 1.296875 11.796875 C 1.085938 11.585938 0.894531 11.285156 0.71875 10.890625 C 0.550781 10.492188 0.351562 10.101562 0.125 9.71875 C -0.09375 9.34375 -0.359375 9.023438 -0.671875 8.765625 C -0.984375 8.503906 -1.375 8.398438 -1.84375 8.453125 C -2.101562 8.484375 -2.316406 8.453125 -2.484375 8.359375 C -2.660156 8.265625 -2.78125 8.140625 -2.84375 7.984375 C -2.914062 7.828125 -2.929688 7.65625 -2.890625 7.46875 C -2.847656 7.289062 -2.75 7.125 -2.59375 6.96875 C -2.414062 6.96875 -2.207031 7 -1.96875 7.0625 C -1.726562 7.125 -1.507812 7.164062 -1.3125 7.1875 C -1.113281 7.21875 -0.945312 7.203125 -0.8125 7.140625 C -0.6875 7.078125 -0.625 6.898438 -0.625 6.609375 C -0.601562 5.585938 -0.503906 4.492188 -0.328125 3.328125 C -0.160156 2.160156 0.101562 0.972656 0.46875 -0.234375 C 0.832031 -1.441406 1.300781 -2.617188 1.875 -3.765625 C 2.457031 -4.921875 3.148438 -6 3.953125 -7 C 4.753906 -8 5.675781 -8.882812 6.71875 -9.65625 C 7.769531 -10.425781 8.953125 -11.035156 10.265625 -11.484375 C 10.835938 -11.671875 11.253906 -11.628906 11.515625 -11.359375 C 11.785156 -11.097656 11.929688 -10.707031 11.953125 -10.1875 C 11.984375 -9.664062 11.890625 -9.039062 11.671875 -8.3125 C 11.460938 -7.59375 11.1875 -6.875 10.84375 -6.15625 C 10.507812 -5.4375 10.117188 -4.753906 9.671875 -4.109375 C 9.222656 -3.460938 8.753906 -2.957031 8.265625 -2.59375 C 7.628906 -2.125 6.992188 -1.796875 6.359375 -1.609375 C 5.734375 -1.429688 5.144531 -1.382812 4.59375 -1.46875 C 4.050781 -1.5625 3.554688 -1.78125 3.109375 -2.125 C 2.867188 -2.332031 2.660156 -2.566406 2.484375 -2.828125 C 2.398438 -2.722656 2.332031 -2.609375 2.28125 -2.484375 Z M 4.171875 -3.546875 C 4.398438 -3.203125 4.691406 -2.96875 5.046875 -2.84375 C 5.398438 -2.726562 5.785156 -2.71875 6.203125 -2.8125 C 6.628906 -2.90625 7.066406 -3.082031 7.515625 -3.34375 C 7.878906 -3.53125 8.242188 -3.835938 8.609375 -4.265625 C 8.972656 -4.703125 9.316406 -5.1875 9.640625 -5.71875 C 9.972656 -6.257812 10.25 -6.8125 10.46875 -7.375 C 10.695312 -7.9375 10.847656 -8.429688 10.921875 -8.859375 C 11.003906 -9.296875 10.988281 -9.628906 10.875 -9.859375 C 10.757812 -10.097656 10.515625 -10.15625 10.140625 -10.03125 C 9.015625 -9.664062 7.957031 -9.101562 6.96875 -8.34375 C 5.988281 -7.582031 5.109375 -6.703125 4.328125 -5.703125 C 4.117188 -5.460938 3.921875 -5.210938 3.734375 -4.953125 C 3.785156 -4.347656 3.929688 -3.878906 4.171875 -3.546875 Z M 4.171875 -3.546875 "/></g></g></g><g fill="#223202" fill-opacity="1"><g transform="translate(190.472805, 40.464081)"><g><path d="M 7.859375 -9.828125 C 7.285156 -9.359375 6.71875 -8.800781 6.15625 -8.15625 C 5.59375 -7.519531 5.0625 -6.800781 4.5625 -6 C 4.0625 -5.195312 3.601562 -4.335938 3.1875 -3.421875 C 2.769531 -2.503906 2.425781 -1.5625 2.15625 -0.59375 C 1.925781 -0.382812 1.628906 -0.304688 1.265625 -0.359375 C 0.941406 -0.328125 0.753906 -0.382812 0.703125 -0.53125 C 0.648438 -0.675781 0.648438 -0.851562 0.703125 -1.0625 C 0.960938 -2.164062 1.25 -3.238281 1.5625 -4.28125 C 1.882812 -5.332031 2.109375 -6.410156 2.234375 -7.515625 C 2.160156 -7.910156 2.148438 -8.175781 2.203125 -8.3125 C 2.253906 -8.457031 2.359375 -8.539062 2.515625 -8.5625 C 2.671875 -8.59375 2.875 -8.582031 3.125 -8.53125 C 3.375 -8.476562 3.644531 -8.441406 3.9375 -8.421875 C 4.113281 -8.335938 4.257812 -8.320312 4.375 -8.375 C 4.5 -8.425781 4.628906 -8.519531 4.765625 -8.65625 C 5.128906 -8.988281 5.570312 -9.375 6.09375 -9.8125 C 6.613281 -10.25 7.144531 -10.609375 7.6875 -10.890625 C 8.226562 -11.179688 8.710938 -11.335938 9.140625 -11.359375 C 9.578125 -11.390625 9.898438 -11.15625 10.109375 -10.65625 C 10.347656 -10.050781 10.46875 -9.367188 10.46875 -8.609375 C 10.46875 -7.847656 10.382812 -7.0625 10.21875 -6.25 C 10.0625 -5.4375 9.851562 -4.625 9.59375 -3.8125 C 9.332031 -3 9.070312 -2.253906 8.8125 -1.578125 C 8.726562 -1.335938 8.566406 -1.101562 8.328125 -0.875 C 8.097656 -0.65625 7.859375 -0.476562 7.609375 -0.34375 C 7.359375 -0.21875 7.132812 -0.128906 6.9375 -0.078125 C 6.738281 -0.0234375 6.628906 -0.0664062 6.609375 -0.203125 C 7.023438 -0.742188 7.410156 -1.40625 7.765625 -2.1875 C 8.117188 -2.976562 8.410156 -3.804688 8.640625 -4.671875 C 8.878906 -5.546875 9.03125 -6.398438 9.09375 -7.234375 C 9.164062 -8.078125 9.125 -8.835938 8.96875 -9.515625 C 8.863281 -9.960938 8.707031 -10.164062 8.5 -10.125 C 8.289062 -10.082031 8.078125 -9.984375 7.859375 -9.828125 Z M 7.859375 -9.828125 "/></g></g></g></svg>